<mxfile host="app.diagrams.net" agent="Mozilla/5.0 (Windows NT 10.0; Win64; x64; rv:135.0) Gecko/20100101 Firefox/135.0" version="26.0.11">
  <diagram name="Page-1" id="qhhc7btaEHkyKDMfLRxa">
    <mxGraphModel dx="1444" dy="787" grid="1" gridSize="10" guides="1" tooltips="1" connect="1" arrows="1" fold="1" page="1" pageScale="1" pageWidth="850" pageHeight="1100" math="0" shadow="0">
      <root>
        <mxCell id="0" />
        <mxCell id="1" parent="0" />
        <mxCell id="bmFEfaO32u6_btAUXuOd-1" style="edgeStyle=orthogonalEdgeStyle;rounded=0;orthogonalLoop=1;jettySize=auto;html=1;strokeWidth=2;" edge="1" parent="1" source="bmFEfaO32u6_btAUXuOd-2" target="bmFEfaO32u6_btAUXuOd-8">
          <mxGeometry relative="1" as="geometry" />
        </mxCell>
        <mxCell id="bmFEfaO32u6_btAUXuOd-2" value="&lt;div&gt;&lt;font style=&quot;font-size: 20px; background-color: light-dark(rgb(255, 230, 204), rgb(255, 255, 255));&quot;&gt;(1) &lt;span style=&quot;--tw-border-spacing-x: 0; --tw-border-spacing-y: 0; --tw-translate-x: 0; --tw-translate-y: 0; --tw-rotate: 0; --tw-skew-x: 0; --tw-skew-y: 0; --tw-scale-x: 1; --tw-scale-y: 1; --tw-pan-x: ; --tw-pan-y: ; --tw-pinch-zoom: ; --tw-scroll-snap-strictness: proximity; --tw-gradient-from-position: ; --tw-gradient-via-position: ; --tw-gradient-to-position: ; --tw-ordinal: ; --tw-slashed-zero: ; --tw-numeric-figure: ; --tw-numeric-spacing: ; --tw-numeric-fraction: ; --tw-ring-inset: ; --tw-ring-offset-width: 0px; --tw-ring-offset-color: light-dark(#fff, #000000); --tw-ring-color: rgb(59 130 246 / .5); --tw-ring-offset-shadow: 0 0 #0000; --tw-ring-shadow: 0 0 #0000; --tw-shadow: 0 0 #0000; --tw-shadow-colored: 0 0 #0000; --tw-blur: ; --tw-brightness: ; --tw-contrast: ; --tw-grayscale: ; --tw-hue-rotate: ; --tw-invert: ; --tw-saturate: ; --tw-sepia: ; --tw-drop-shadow: ; --tw-backdrop-blur: ; --tw-backdrop-brightness: ; --tw-backdrop-contrast: ; --tw-backdrop-grayscale: ; --tw-backdrop-hue-rotate: ; --tw-backdrop-invert: ; --tw-backdrop-opacity: ; --tw-backdrop-saturate: ; --tw-backdrop-sepia: ; color: rgb(51, 51, 51); font-family: &amp;quot;Helvetica Neue&amp;quot;, Helvetica, &amp;quot;Segoe UI&amp;quot;, Arial, freesans, sans-serif; font-variant-ligatures: normal; font-variant-caps: normal; font-weight: 400; letter-spacing: normal; text-align: start; text-indent: 0px; text-transform: none; word-spacing: 0px; -webkit-text-stroke-width: 0px; white-space: normal; text-decoration-thickness: initial; text-decoration-style: initial; text-decoration-color: initial;&quot;&gt;Defining Search Strings&lt;/span&gt;&lt;/font&gt;&lt;/div&gt;&lt;div&gt;&lt;font style=&quot;font-size: 20px; background-color: light-dark(#ffffff, var(--ge-dark-color, #121212));&quot;&gt;&lt;em style=&quot;--tw-border-spacing-x: 0; --tw-border-spacing-y: 0; --tw-translate-x: 0; --tw-translate-y: 0; --tw-rotate: 0; --tw-skew-x: 0; --tw-skew-y: 0; --tw-scale-x: 1; --tw-scale-y: 1; --tw-pan-x: ; --tw-pan-y: ; --tw-pinch-zoom: ; --tw-scroll-snap-strictness: proximity; --tw-gradient-from-position: ; --tw-gradient-via-position: ; --tw-gradient-to-position: ; --tw-ordinal: ; --tw-slashed-zero: ; --tw-numeric-figure: ; --tw-numeric-spacing: ; --tw-numeric-fraction: ; --tw-ring-inset: ; --tw-ring-offset-width: 0px; --tw-ring-offset-color: light-dark(#fff, #000000); --tw-ring-color: rgb(59 130 246 / .5); --tw-ring-offset-shadow: 0 0 #0000; --tw-ring-shadow: 0 0 #0000; --tw-shadow: 0 0 #0000; --tw-shadow-colored: 0 0 #0000; --tw-blur: ; --tw-brightness: ; --tw-contrast: ; --tw-grayscale: ; --tw-hue-rotate: ; --tw-invert: ; --tw-saturate: ; --tw-sepia: ; --tw-drop-shadow: ; --tw-backdrop-blur: ; --tw-backdrop-brightness: ; --tw-backdrop-contrast: ; --tw-backdrop-grayscale: ; --tw-backdrop-hue-rotate: ; --tw-backdrop-invert: ; --tw-backdrop-opacity: ; --tw-backdrop-saturate: ; --tw-backdrop-sepia: ; color: rgb(51, 51, 51); font-family: &amp;quot;Helvetica Neue&amp;quot;, Helvetica, &amp;quot;Segoe UI&amp;quot;, Arial, freesans, sans-serif; font-variant-ligatures: normal; font-variant-caps: normal; font-weight: 400; letter-spacing: normal; text-align: start; text-indent: 0px; text-transform: none; word-spacing: 0px; -webkit-text-stroke-width: 0px; white-space: normal; text-decoration-thickness: initial; text-decoration-style: initial; text-decoration-color: initial;&quot;&gt;&lt;br&gt;&lt;/em&gt;&lt;/font&gt;&lt;/div&gt;&lt;div&gt;&lt;i style=&quot;background-color: light-dark(rgb(255, 230, 204), rgb(255, 255, 255));&quot;&gt;&lt;font style=&quot;font-size: 20px;&quot;&gt;&lt;span style=&quot;--tw-border-spacing-x: 0; --tw-border-spacing-y: 0; --tw-translate-x: 0; --tw-translate-y: 0; --tw-rotate: 0; --tw-skew-x: 0; --tw-skew-y: 0; --tw-scale-x: 1; --tw-scale-y: 1; --tw-pan-x: ; --tw-pan-y: ; --tw-pinch-zoom: ; --tw-scroll-snap-strictness: proximity; --tw-gradient-from-position: ; --tw-gradient-via-position: ; --tw-gradient-to-position: ; --tw-ordinal: ; --tw-slashed-zero: ; --tw-numeric-figure: ; --tw-numeric-spacing: ; --tw-numeric-fraction: ; --tw-ring-inset: ; --tw-ring-offset-width: 0px; --tw-ring-offset-color: light-dark(#fff, #000000); --tw-ring-color: rgb(59 130 246 / .5); --tw-ring-offset-shadow: 0 0 #0000; --tw-ring-shadow: 0 0 #0000; --tw-shadow: 0 0 #0000; --tw-shadow-colored: 0 0 #0000; --tw-blur: ; --tw-brightness: ; --tw-contrast: ; --tw-grayscale: ; --tw-hue-rotate: ; --tw-invert: ; --tw-saturate: ; --tw-sepia: ; --tw-drop-shadow: ; --tw-backdrop-blur: ; --tw-backdrop-brightness: ; --tw-backdrop-contrast: ; --tw-backdrop-grayscale: ; --tw-backdrop-hue-rotate: ; --tw-backdrop-invert: ; --tw-backdrop-opacity: ; --tw-backdrop-saturate: ; --tw-backdrop-sepia: ; color: light-dark(rgb(51, 51, 51), rgb(193, 193, 193)); font-family: &amp;quot;Helvetica Neue&amp;quot;, Helvetica, &amp;quot;Segoe UI&amp;quot;, Arial, freesans, sans-serif; font-variant-ligatures: normal; font-variant-caps: normal; font-weight: 400; letter-spacing: normal; text-align: start; text-indent: 0px; text-transform: none; word-spacing: 0px; -webkit-text-stroke-width: 0px; white-space: normal; text-decoration-thickness: initial; text-decoration-style: initial; text-decoration-color: initial;&quot;&gt;What are the principles of Self-Sovereign Identity?&lt;/span&gt;&lt;/font&gt;&lt;/i&gt;&lt;/div&gt;" style="rounded=1;whiteSpace=wrap;html=1;fillColor=#ffe6cc;strokeWidth=2;strokeColor=#d79b00;" vertex="1" parent="1">
          <mxGeometry x="70" y="520" width="320" height="130" as="geometry" />
        </mxCell>
        <mxCell id="bmFEfaO32u6_btAUXuOd-3" style="edgeStyle=orthogonalEdgeStyle;rounded=0;orthogonalLoop=1;jettySize=auto;html=1;entryX=0;entryY=0.5;entryDx=0;entryDy=0;strokeWidth=2;" edge="1" parent="1" source="bmFEfaO32u6_btAUXuOd-4" target="bmFEfaO32u6_btAUXuOd-10">
          <mxGeometry relative="1" as="geometry" />
        </mxCell>
        <mxCell id="bmFEfaO32u6_btAUXuOd-4" value="&lt;div&gt;&lt;font style=&quot;font-size: 20px;&quot;&gt;47 Papers&lt;br&gt;&lt;/font&gt;&lt;/div&gt;" style="rounded=1;whiteSpace=wrap;html=1;fillColor=#dae8fc;arcSize=50;strokeWidth=2;strokeColor=#6c8ebf;" vertex="1" parent="1">
          <mxGeometry x="500" y="720" width="320" height="130" as="geometry" />
        </mxCell>
        <mxCell id="bmFEfaO32u6_btAUXuOd-5" style="edgeStyle=orthogonalEdgeStyle;rounded=0;orthogonalLoop=1;jettySize=auto;html=1;entryX=0.5;entryY=0;entryDx=0;entryDy=0;strokeWidth=2;" edge="1" parent="1" source="bmFEfaO32u6_btAUXuOd-6" target="bmFEfaO32u6_btAUXuOd-4">
          <mxGeometry relative="1" as="geometry" />
        </mxCell>
        <mxCell id="bmFEfaO32u6_btAUXuOd-6" value="&lt;div&gt;&lt;font style=&quot;font-size: 20px; background-color: light-dark(rgb(255, 230, 204), rgb(255, 255, 255));&quot;&gt;(2) Searching&lt;/font&gt;&lt;/div&gt;&lt;div&gt;&lt;font style=&quot;font-size: 20px; background-color: light-dark(#ffffff, var(--ge-dark-color, #121212));&quot;&gt;&lt;em&gt;&lt;br&gt;&lt;/em&gt;&lt;/font&gt;&lt;/div&gt;&lt;div&gt;&lt;i&gt;&lt;font style=&quot;font-size: 20px;&quot;&gt;&lt;span style=&quot;color: rgb(51, 51, 51); font-family: &amp;quot;Helvetica Neue&amp;quot;, Helvetica, &amp;quot;Segoe UI&amp;quot;, Arial, freesans, sans-serif; font-variant-ligatures: normal; font-variant-caps: normal; font-weight: 400; letter-spacing: normal; text-align: start; text-indent: 0px; text-transform: none; word-spacing: 0px; -webkit-text-stroke-width: 0px; white-space: normal; text-decoration-thickness: initial; text-decoration-style: initial; text-decoration-color: initial; display: inline !important; float: none; background-color: light-dark(rgb(255, 230, 204), rgb(255, 255, 255));&quot;&gt;ACM, ArXiv, IEEE Xplore, Scopus, &lt;/span&gt;&lt;span style=&quot;color: rgb(51, 51, 51); font-family: &amp;quot;Helvetica Neue&amp;quot;, Helvetica, &amp;quot;Segoe UI&amp;quot;, Arial, freesans, sans-serif; font-variant-ligatures: normal; font-variant-caps: normal; font-weight: 400; letter-spacing: normal; text-align: start; text-indent: 0px; text-transform: none; word-spacing: 0px; -webkit-text-stroke-width: 0px; white-space: normal; text-decoration-thickness: initial; text-decoration-style: initial; text-decoration-color: initial; display: inline !important; float: none; background-color: light-dark(rgb(255, 230, 204), rgb(255, 255, 255));&quot;&gt;&lt;span&gt;Google &lt;/span&gt;Scholar&lt;/span&gt;&lt;/font&gt;&lt;/i&gt;&lt;/div&gt;" style="rounded=1;whiteSpace=wrap;html=1;fillColor=#ffe6cc;strokeWidth=2;strokeColor=#d79b00;" vertex="1" parent="1">
          <mxGeometry x="500" y="520" width="320" height="130" as="geometry" />
        </mxCell>
        <mxCell id="bmFEfaO32u6_btAUXuOd-7" style="edgeStyle=orthogonalEdgeStyle;rounded=0;orthogonalLoop=1;jettySize=auto;html=1;entryX=0;entryY=0.5;entryDx=0;entryDy=0;strokeWidth=2;" edge="1" parent="1" source="bmFEfaO32u6_btAUXuOd-8" target="bmFEfaO32u6_btAUXuOd-6">
          <mxGeometry relative="1" as="geometry" />
        </mxCell>
        <mxCell id="bmFEfaO32u6_btAUXuOd-8" value="&lt;div&gt;&lt;font style=&quot;font-size: 20px;&quot;&gt;Search Strings&lt;font&gt;:&lt;/font&gt;&lt;/font&gt;&lt;/div&gt;&lt;div&gt;&lt;font style=&quot;font-size: 20px;&quot;&gt;&lt;font&gt;&lt;br&gt;&lt;/font&gt;&lt;/font&gt;&lt;/div&gt;&lt;div&gt;&lt;em style=&quot;--tw-border-spacing-x: 0; --tw-border-spacing-y: 0; --tw-translate-x: 0; --tw-translate-y: 0; --tw-rotate: 0; --tw-skew-x: 0; --tw-skew-y: 0; --tw-scale-x: 1; --tw-scale-y: 1; --tw-pan-x: ; --tw-pan-y: ; --tw-pinch-zoom: ; --tw-scroll-snap-strictness: proximity; --tw-gradient-from-position: ; --tw-gradient-via-position: ; --tw-gradient-to-position: ; --tw-ordinal: ; --tw-slashed-zero: ; --tw-numeric-figure: ; --tw-numeric-spacing: ; --tw-numeric-fraction: ; --tw-ring-inset: ; --tw-ring-offset-width: 0px; --tw-ring-offset-color: light-dark(#fff, #000000); --tw-ring-color: rgb(59 130 246 / .5); --tw-ring-offset-shadow: 0 0 #0000; --tw-ring-shadow: 0 0 #0000; --tw-shadow: 0 0 #0000; --tw-shadow-colored: 0 0 #0000; --tw-blur: ; --tw-brightness: ; --tw-contrast: ; --tw-grayscale: ; --tw-hue-rotate: ; --tw-invert: ; --tw-saturate: ; --tw-sepia: ; --tw-drop-shadow: ; --tw-backdrop-blur: ; --tw-backdrop-brightness: ; --tw-backdrop-contrast: ; --tw-backdrop-grayscale: ; --tw-backdrop-hue-rotate: ; --tw-backdrop-invert: ; --tw-backdrop-opacity: ; --tw-backdrop-saturate: ; --tw-backdrop-sepia: ; color: rgb(51, 51, 51); font-family: &amp;quot;Helvetica Neue&amp;quot;, Helvetica, &amp;quot;Segoe UI&amp;quot;, Arial, freesans, sans-serif; font-size: 16px; font-variant-ligatures: normal; font-variant-caps: normal; font-weight: 400; letter-spacing: normal; text-align: left; text-indent: 0px; text-transform: none; word-spacing: 0px; -webkit-text-stroke-width: 0px; white-space: normal; text-decoration-thickness: initial; text-decoration-style: initial; text-decoration-color: initial; background-color: light-dark(rgb(218, 232, 252), rgb(255, 255, 255));&quot;&gt;(&quot;Self-Sovereign Identity&quot; AND &quot;principles&quot;)&lt;/em&gt;&lt;/div&gt;&lt;div&gt;&lt;em style=&quot;--tw-border-spacing-x: 0; --tw-border-spacing-y: 0; --tw-translate-x: 0; --tw-translate-y: 0; --tw-rotate: 0; --tw-skew-x: 0; --tw-skew-y: 0; --tw-scale-x: 1; --tw-scale-y: 1; --tw-pan-x: ; --tw-pan-y: ; --tw-pinch-zoom: ; --tw-scroll-snap-strictness: proximity; --tw-gradient-from-position: ; --tw-gradient-via-position: ; --tw-gradient-to-position: ; --tw-ordinal: ; --tw-slashed-zero: ; --tw-numeric-figure: ; --tw-numeric-spacing: ; --tw-numeric-fraction: ; --tw-ring-inset: ; --tw-ring-offset-width: 0px; --tw-ring-offset-color: light-dark(#fff, #000000); --tw-ring-color: rgb(59 130 246 / .5); --tw-ring-offset-shadow: 0 0 #0000; --tw-ring-shadow: 0 0 #0000; --tw-shadow: 0 0 #0000; --tw-shadow-colored: 0 0 #0000; --tw-blur: ; --tw-brightness: ; --tw-contrast: ; --tw-grayscale: ; --tw-hue-rotate: ; --tw-invert: ; --tw-saturate: ; --tw-sepia: ; --tw-drop-shadow: ; --tw-backdrop-blur: ; --tw-backdrop-brightness: ; --tw-backdrop-contrast: ; --tw-backdrop-grayscale: ; --tw-backdrop-hue-rotate: ; --tw-backdrop-invert: ; --tw-backdrop-opacity: ; --tw-backdrop-saturate: ; --tw-backdrop-sepia: ; color: rgb(51, 51, 51); font-family: &amp;quot;Helvetica Neue&amp;quot;, Helvetica, &amp;quot;Segoe UI&amp;quot;, Arial, freesans, sans-serif; font-size: 16px; font-variant-ligatures: normal; font-variant-caps: normal; font-weight: 400; letter-spacing: normal; text-align: left; text-indent: 0px; text-transform: none; word-spacing: 0px; -webkit-text-stroke-width: 0px; white-space: normal; text-decoration-thickness: initial; text-decoration-style: initial; text-decoration-color: initial; background-color: rgb(218, 232, 252);&quot;&gt;OR&lt;/em&gt;&lt;/div&gt;&lt;div&gt;&lt;em style=&quot;--tw-border-spacing-x: 0; --tw-border-spacing-y: 0; --tw-translate-x: 0; --tw-translate-y: 0; --tw-rotate: 0; --tw-skew-x: 0; --tw-skew-y: 0; --tw-scale-x: 1; --tw-scale-y: 1; --tw-pan-x: ; --tw-pan-y: ; --tw-pinch-zoom: ; --tw-scroll-snap-strictness: proximity; --tw-gradient-from-position: ; --tw-gradient-via-position: ; --tw-gradient-to-position: ; --tw-ordinal: ; --tw-slashed-zero: ; --tw-numeric-figure: ; --tw-numeric-spacing: ; --tw-numeric-fraction: ; --tw-ring-inset: ; --tw-ring-offset-width: 0px; --tw-ring-offset-color: light-dark(#fff, #000000); --tw-ring-color: rgb(59 130 246 / .5); --tw-ring-offset-shadow: 0 0 #0000; --tw-ring-shadow: 0 0 #0000; --tw-shadow: 0 0 #0000; --tw-shadow-colored: 0 0 #0000; --tw-blur: ; --tw-brightness: ; --tw-contrast: ; --tw-grayscale: ; --tw-hue-rotate: ; --tw-invert: ; --tw-saturate: ; --tw-sepia: ; --tw-drop-shadow: ; --tw-backdrop-blur: ; --tw-backdrop-brightness: ; --tw-backdrop-contrast: ; --tw-backdrop-grayscale: ; --tw-backdrop-hue-rotate: ; --tw-backdrop-invert: ; --tw-backdrop-opacity: ; --tw-backdrop-saturate: ; --tw-backdrop-sepia: ; color: rgb(51, 51, 51); font-family: &amp;quot;Helvetica Neue&amp;quot;, Helvetica, &amp;quot;Segoe UI&amp;quot;, Arial, freesans, sans-serif; font-size: 16px; font-variant-ligatures: normal; font-variant-caps: normal; font-weight: 400; letter-spacing: normal; text-align: left; text-indent: 0px; text-transform: none; word-spacing: 0px; -webkit-text-stroke-width: 0px; white-space: normal; text-decoration-thickness: initial; text-decoration-style: initial; text-decoration-color: initial; background-color: light-dark(rgb(218, 232, 252), rgb(255, 255, 255));&quot;&gt;(&quot;SSI&quot; AND &quot;properties&quot;)&lt;/em&gt;&lt;/div&gt;" style="rounded=1;whiteSpace=wrap;html=1;fillColor=#dae8fc;arcSize=50;strokeWidth=2;strokeColor=#6c8ebf;" vertex="1" parent="1">
          <mxGeometry x="70" y="720" width="320" height="130" as="geometry" />
        </mxCell>
        <mxCell id="bmFEfaO32u6_btAUXuOd-9" style="edgeStyle=orthogonalEdgeStyle;rounded=0;orthogonalLoop=1;jettySize=auto;html=1;entryX=0.5;entryY=0;entryDx=0;entryDy=0;strokeWidth=2;" edge="1" parent="1" source="bmFEfaO32u6_btAUXuOd-10" target="bmFEfaO32u6_btAUXuOd-16">
          <mxGeometry relative="1" as="geometry" />
        </mxCell>
        <mxCell id="bmFEfaO32u6_btAUXuOd-10" value="&lt;div&gt;&lt;font style=&quot;font-size: 20px;&quot;&gt;(3) Screeening Papers&lt;br&gt;&lt;/font&gt;&lt;/div&gt;" style="rounded=1;whiteSpace=wrap;html=1;fillColor=#ffe6cc;strokeWidth=2;strokeColor=#d79b00;" vertex="1" parent="1">
          <mxGeometry x="940" y="520" width="320" height="130" as="geometry" />
        </mxCell>
        <mxCell id="bmFEfaO32u6_btAUXuOd-11" style="edgeStyle=orthogonalEdgeStyle;rounded=0;orthogonalLoop=1;jettySize=auto;html=1;entryX=0;entryY=0.5;entryDx=0;entryDy=0;strokeWidth=2;" edge="1" parent="1" source="bmFEfaO32u6_btAUXuOd-12" target="bmFEfaO32u6_btAUXuOd-36">
          <mxGeometry relative="1" as="geometry" />
        </mxCell>
        <mxCell id="bmFEfaO32u6_btAUXuOd-12" value="&lt;div&gt;&lt;font style=&quot;font-size: 20px;&quot;&gt;52 principles&lt;font&gt;&lt;font&gt;&lt;br&gt;&lt;/font&gt;&lt;/font&gt;&lt;/font&gt;&lt;/div&gt;" style="rounded=1;whiteSpace=wrap;html=1;fillColor=#dae8fc;arcSize=50;strokeWidth=2;strokeColor=#6c8ebf;" vertex="1" parent="1">
          <mxGeometry x="1370" y="720" width="320" height="130" as="geometry" />
        </mxCell>
        <mxCell id="bmFEfaO32u6_btAUXuOd-13" style="edgeStyle=orthogonalEdgeStyle;rounded=0;orthogonalLoop=1;jettySize=auto;html=1;entryX=0.5;entryY=0;entryDx=0;entryDy=0;strokeWidth=2;" edge="1" parent="1" source="bmFEfaO32u6_btAUXuOd-14" target="bmFEfaO32u6_btAUXuOd-12">
          <mxGeometry relative="1" as="geometry" />
        </mxCell>
        <mxCell id="bmFEfaO32u6_btAUXuOd-14" value="&lt;div&gt;&lt;font style=&quot;font-size: 20px;&quot;&gt;(4) Recording of Principles&lt;br&gt;&lt;/font&gt;&lt;/div&gt;" style="rounded=1;whiteSpace=wrap;html=1;fillColor=#ffe6cc;strokeWidth=2;strokeColor=#d79b00;" vertex="1" parent="1">
          <mxGeometry x="1370" y="520" width="320" height="130" as="geometry" />
        </mxCell>
        <mxCell id="bmFEfaO32u6_btAUXuOd-15" style="edgeStyle=orthogonalEdgeStyle;rounded=0;orthogonalLoop=1;jettySize=auto;html=1;entryX=0;entryY=0.5;entryDx=0;entryDy=0;strokeWidth=2;" edge="1" parent="1" source="bmFEfaO32u6_btAUXuOd-16" target="bmFEfaO32u6_btAUXuOd-14">
          <mxGeometry relative="1" as="geometry" />
        </mxCell>
        <mxCell id="bmFEfaO32u6_btAUXuOd-16" value="&lt;font style=&quot;font-size: 20px;&quot;&gt;18 Papers and 52 principles&lt;br&gt;&lt;/font&gt;" style="rounded=1;whiteSpace=wrap;html=1;fillColor=#dae8fc;arcSize=50;strokeWidth=2;strokeColor=#6c8ebf;" vertex="1" parent="1">
          <mxGeometry x="940" y="720" width="320" height="130" as="geometry" />
        </mxCell>
        <mxCell id="bmFEfaO32u6_btAUXuOd-17" style="edgeStyle=orthogonalEdgeStyle;rounded=0;orthogonalLoop=1;jettySize=auto;html=1;entryX=0.5;entryY=0;entryDx=0;entryDy=0;strokeWidth=2;" edge="1" parent="1" source="bmFEfaO32u6_btAUXuOd-18" target="bmFEfaO32u6_btAUXuOd-24">
          <mxGeometry relative="1" as="geometry" />
        </mxCell>
        <mxCell id="bmFEfaO32u6_btAUXuOd-18" value="&lt;font style=&quot;font-size: 20px;&quot;&gt;(6) Selection of Principles&lt;/font&gt;" style="rounded=1;whiteSpace=wrap;html=1;fillColor=#ffe6cc;strokeWidth=2;strokeColor=#d79b00;" vertex="1" parent="1">
          <mxGeometry x="2230" y="520" width="320" height="130" as="geometry" />
        </mxCell>
        <mxCell id="bmFEfaO32u6_btAUXuOd-19" style="edgeStyle=orthogonalEdgeStyle;rounded=0;orthogonalLoop=1;jettySize=auto;html=1;entryX=0;entryY=0.5;entryDx=0;entryDy=0;strokeWidth=2;" edge="1" parent="1" source="bmFEfaO32u6_btAUXuOd-20" target="bmFEfaO32u6_btAUXuOd-26">
          <mxGeometry relative="1" as="geometry" />
        </mxCell>
        <mxCell id="bmFEfaO32u6_btAUXuOd-20" value="&lt;font style=&quot;font-size: 20px;&quot;&gt;5 Groups&lt;/font&gt;" style="rounded=1;whiteSpace=wrap;html=1;fillColor=#dae8fc;arcSize=50;strokeWidth=2;strokeColor=#6c8ebf;" vertex="1" parent="1">
          <mxGeometry x="2660" y="720" width="320" height="130" as="geometry" />
        </mxCell>
        <mxCell id="bmFEfaO32u6_btAUXuOd-21" style="edgeStyle=orthogonalEdgeStyle;rounded=0;orthogonalLoop=1;jettySize=auto;html=1;entryX=0.5;entryY=0;entryDx=0;entryDy=0;strokeWidth=2;" edge="1" parent="1" source="bmFEfaO32u6_btAUXuOd-22" target="bmFEfaO32u6_btAUXuOd-20">
          <mxGeometry relative="1" as="geometry" />
        </mxCell>
        <mxCell id="bmFEfaO32u6_btAUXuOd-22" value="&lt;div&gt;&lt;font style=&quot;font-size: 20px;&quot;&gt;(7) Categorization&lt;/font&gt;&lt;/div&gt;" style="rounded=1;whiteSpace=wrap;html=1;fillColor=#ffe6cc;strokeWidth=2;strokeColor=#d79b00;" vertex="1" parent="1">
          <mxGeometry x="2660" y="520" width="320" height="130" as="geometry" />
        </mxCell>
        <mxCell id="bmFEfaO32u6_btAUXuOd-23" style="edgeStyle=orthogonalEdgeStyle;rounded=0;orthogonalLoop=1;jettySize=auto;html=1;entryX=0;entryY=0.5;entryDx=0;entryDy=0;strokeWidth=2;" edge="1" parent="1" source="bmFEfaO32u6_btAUXuOd-24" target="bmFEfaO32u6_btAUXuOd-22">
          <mxGeometry relative="1" as="geometry" />
        </mxCell>
        <mxCell id="bmFEfaO32u6_btAUXuOd-24" value="&lt;font style=&quot;font-size: 20px;&quot;&gt;15 Principles&lt;/font&gt;" style="rounded=1;whiteSpace=wrap;html=1;fillColor=#dae8fc;arcSize=50;strokeWidth=2;strokeColor=#6c8ebf;" vertex="1" parent="1">
          <mxGeometry x="2230" y="720" width="320" height="130" as="geometry" />
        </mxCell>
        <mxCell id="bmFEfaO32u6_btAUXuOd-25" style="edgeStyle=orthogonalEdgeStyle;rounded=0;orthogonalLoop=1;jettySize=auto;html=1;entryX=0.5;entryY=0;entryDx=0;entryDy=0;strokeWidth=2;" edge="1" parent="1" source="bmFEfaO32u6_btAUXuOd-26" target="bmFEfaO32u6_btAUXuOd-32">
          <mxGeometry relative="1" as="geometry" />
        </mxCell>
        <mxCell id="bmFEfaO32u6_btAUXuOd-26" value="&lt;div&gt;&lt;font style=&quot;font-size: 20px; background-color: light-dark(rgb(255, 230, 204), rgb(255, 255, 255));&quot;&gt;&lt;span style=&quot;--tw-border-spacing-x: 0; --tw-border-spacing-y: 0; --tw-translate-x: 0; --tw-translate-y: 0; --tw-rotate: 0; --tw-skew-x: 0; --tw-skew-y: 0; --tw-scale-x: 1; --tw-scale-y: 1; --tw-pan-x: ; --tw-pan-y: ; --tw-pinch-zoom: ; --tw-scroll-snap-strictness: proximity; --tw-gradient-from-position: ; --tw-gradient-via-position: ; --tw-gradient-to-position: ; --tw-ordinal: ; --tw-slashed-zero: ; --tw-numeric-figure: ; --tw-numeric-spacing: ; --tw-numeric-fraction: ; --tw-ring-inset: ; --tw-ring-offset-width: 0px; --tw-ring-offset-color: light-dark(#fff, #000000); --tw-ring-color: rgb(59 130 246 / .5); --tw-ring-offset-shadow: 0 0 #0000; --tw-ring-shadow: 0 0 #0000; --tw-shadow: 0 0 #0000; --tw-shadow-colored: 0 0 #0000; --tw-blur: ; --tw-brightness: ; --tw-contrast: ; --tw-grayscale: ; --tw-hue-rotate: ; --tw-invert: ; --tw-saturate: ; --tw-sepia: ; --tw-drop-shadow: ; --tw-backdrop-blur: ; --tw-backdrop-brightness: ; --tw-backdrop-contrast: ; --tw-backdrop-grayscale: ; --tw-backdrop-hue-rotate: ; --tw-backdrop-invert: ; --tw-backdrop-opacity: ; --tw-backdrop-saturate: ; --tw-backdrop-sepia: ; color: rgb(51, 51, 51); font-family: &amp;quot;Helvetica Neue&amp;quot;, Helvetica, &amp;quot;Segoe UI&amp;quot;, Arial, freesans, sans-serif; font-variant-ligatures: normal; font-variant-caps: normal; font-weight: 400; letter-spacing: normal; text-align: start; text-indent: 0px; text-transform: none; word-spacing: 0px; -webkit-text-stroke-width: 0px; white-space: normal; text-decoration-thickness: initial; text-decoration-style: initial; text-decoration-color: initial;&quot;&gt;(8) Defining Principles&lt;/span&gt;&lt;/font&gt;&lt;/div&gt;" style="rounded=1;whiteSpace=wrap;html=1;fillColor=#ffe6cc;strokeWidth=2;strokeColor=#d79b00;" vertex="1" parent="1">
          <mxGeometry x="3100" y="520" width="320" height="130" as="geometry" />
        </mxCell>
        <mxCell id="bmFEfaO32u6_btAUXuOd-27" style="edgeStyle=orthogonalEdgeStyle;rounded=0;orthogonalLoop=1;jettySize=auto;html=1;entryX=0;entryY=0.5;entryDx=0;entryDy=0;strokeWidth=2;" edge="1" parent="1" source="bmFEfaO32u6_btAUXuOd-28" target="bmFEfaO32u6_btAUXuOd-33">
          <mxGeometry relative="1" as="geometry" />
        </mxCell>
        <mxCell id="bmFEfaO32u6_btAUXuOd-28" value="&lt;div&gt;&lt;font style=&quot;font-size: 20px; background-color: light-dark(rgb(218, 232, 252), rgb(255, 255, 255));&quot;&gt;&lt;span style=&quot;color: rgb(51, 51, 51); font-family: &amp;quot;Helvetica Neue&amp;quot;, Helvetica, &amp;quot;Segoe UI&amp;quot;, Arial, freesans, sans-serif; font-style: normal; font-variant-ligatures: normal; font-variant-caps: normal; font-weight: 400; letter-spacing: normal; text-align: start; text-indent: 0px; text-transform: none; word-spacing: 0px; -webkit-text-stroke-width: 0px; white-space: normal; text-decoration-thickness: initial; text-decoration-style: initial; text-decoration-color: initial; display: inline !important; float: none;&quot;&gt;Questionnaire&lt;/span&gt;&lt;/font&gt;&lt;span style=&quot;color: rgb(51, 51, 51); font-family: &amp;quot;Helvetica Neue&amp;quot;, Helvetica, &amp;quot;Segoe UI&amp;quot;, Arial, freesans, sans-serif; font-size: 16px; font-style: normal; font-variant-ligatures: normal; font-variant-caps: normal; font-weight: 400; letter-spacing: normal; text-align: start; text-indent: 0px; text-transform: none; word-spacing: 0px; -webkit-text-stroke-width: 0px; white-space: normal; text-decoration-thickness: initial; text-decoration-style: initial; text-decoration-color: initial; display: inline !important; float: none; background-color: light-dark(rgb(218, 232, 252), rgb(255, 255, 255));&quot;&gt;&lt;span&gt; &lt;/span&gt;&lt;/span&gt;&lt;/div&gt;" style="rounded=1;whiteSpace=wrap;html=1;fillColor=#dae8fc;arcSize=50;strokeWidth=2;strokeColor=#6c8ebf;" vertex="1" parent="1">
          <mxGeometry x="3530" y="720" width="320" height="130" as="geometry" />
        </mxCell>
        <mxCell id="bmFEfaO32u6_btAUXuOd-29" style="edgeStyle=orthogonalEdgeStyle;rounded=0;orthogonalLoop=1;jettySize=auto;html=1;entryX=0.5;entryY=0;entryDx=0;entryDy=0;strokeWidth=2;" edge="1" parent="1" source="bmFEfaO32u6_btAUXuOd-30" target="bmFEfaO32u6_btAUXuOd-28">
          <mxGeometry relative="1" as="geometry" />
        </mxCell>
        <mxCell id="bmFEfaO32u6_btAUXuOd-30" value="&lt;div&gt;&lt;font style=&quot;font-size: 20px;&quot;&gt;(9) Expert validation&lt;br&gt;&lt;/font&gt;&lt;/div&gt;" style="rounded=1;whiteSpace=wrap;html=1;fillColor=#ffe6cc;strokeWidth=2;strokeColor=#d79b00;" vertex="1" parent="1">
          <mxGeometry x="3530" y="520" width="320" height="130" as="geometry" />
        </mxCell>
        <mxCell id="bmFEfaO32u6_btAUXuOd-31" style="edgeStyle=orthogonalEdgeStyle;rounded=0;orthogonalLoop=1;jettySize=auto;html=1;entryX=0;entryY=0.5;entryDx=0;entryDy=0;strokeWidth=2;" edge="1" parent="1" source="bmFEfaO32u6_btAUXuOd-32" target="bmFEfaO32u6_btAUXuOd-30">
          <mxGeometry relative="1" as="geometry" />
        </mxCell>
        <mxCell id="bmFEfaO32u6_btAUXuOd-32" value="&lt;font style=&quot;font-size: 20px;&quot;&gt;Summary of definition&lt;br&gt;&lt;/font&gt;" style="rounded=1;whiteSpace=wrap;html=1;fillColor=#dae8fc;arcSize=50;strokeWidth=2;strokeColor=#6c8ebf;" vertex="1" parent="1">
          <mxGeometry x="3100" y="720" width="320" height="130" as="geometry" />
        </mxCell>
        <mxCell id="bmFEfaO32u6_btAUXuOd-33" value="&lt;div&gt;&lt;font style=&quot;font-size: 20px;&quot;&gt;(10) Final List of Principles&lt;br&gt;&lt;/font&gt;&lt;/div&gt;" style="rounded=1;whiteSpace=wrap;html=1;fillColor=#ffe6cc;strokeWidth=2;strokeColor=#d79b00;" vertex="1" parent="1">
          <mxGeometry x="3960" y="520" width="320" height="130" as="geometry" />
        </mxCell>
        <mxCell id="bmFEfaO32u6_btAUXuOd-34" style="edgeStyle=orthogonalEdgeStyle;rounded=0;orthogonalLoop=1;jettySize=auto;html=1;entryX=0;entryY=0.5;entryDx=0;entryDy=0;strokeWidth=2;" edge="1" parent="1" source="bmFEfaO32u6_btAUXuOd-35" target="bmFEfaO32u6_btAUXuOd-18">
          <mxGeometry relative="1" as="geometry" />
        </mxCell>
        <mxCell id="bmFEfaO32u6_btAUXuOd-35" value="&lt;div&gt;&lt;font style=&quot;font-size: 20px;&quot;&gt;34 principles&lt;font&gt;&lt;font&gt;&lt;br&gt;&lt;/font&gt;&lt;/font&gt;&lt;/font&gt;&lt;/div&gt;" style="rounded=1;whiteSpace=wrap;html=1;fillColor=#dae8fc;arcSize=50;strokeWidth=2;strokeColor=#6c8ebf;" vertex="1" parent="1">
          <mxGeometry x="1790" y="720" width="320" height="130" as="geometry" />
        </mxCell>
        <mxCell id="bmFEfaO32u6_btAUXuOd-36" value="&lt;div&gt;&lt;font style=&quot;font-size: 20px;&quot;&gt;(5) Merging of Principles&lt;br&gt;&lt;/font&gt;&lt;/div&gt;" style="rounded=1;whiteSpace=wrap;html=1;fillColor=#ffe6cc;strokeWidth=2;strokeColor=#d79b00;" vertex="1" parent="1">
          <mxGeometry x="1790" y="520" width="320" height="130" as="geometry" />
        </mxCell>
      </root>
    </mxGraphModel>
  </diagram>
</mxfile>
